<svg id="Layer_1" data-name="Layer 1" xmlns="http://www.w3.org/2000/svg" width="385" height="65" viewBox="0 0 385 65"><path d="M53.1,50.61c0,.72-.33,1.08-1,1.08H39.79c-.67,0-1-.41-1-1.22q0-3.51.26-10.53t.27-10.53c0-.68-.11-1-.32-1.08q-.37.21-4.66,10.74-2.49,6.18-5,12.34a1.49,1.49,0,0,1-.87.94c-.12,0-.58,0-1.39,0-1.2,0-1.92-.23-2.15-.69Q23,47.87,20,40.56q-3.27-7.71-4.9-11.15a1.12,1.12,0,0,0-.31-.39,1.61,1.61,0,0,0-.25,1q0,3.4.18,10.22t.17,10.22c0,.81-.32,1.22-1,1.22H2.29c-.47,0-.75-.08-.85-.23a1.37,1.37,0,0,1-.16-.78q0-3.8.37-11.38c.24-5.07.36-8.86.36-11.39q0-4-.35-15.12,0-2.88-.31-8.58l0-.59c0-.47.47-.7,1.46-.7,1.28,0,3.19,0,5.74-.12s4.46-.12,5.74-.12c.25,0,.61.48,1.07,1.46L25.47,26.42c.72,1.5,1.32,2.26,1.81,2.26.25,0,.8-.87,1.63-2.61q3.51-7.3,10.4-22c.39-.91.82-1.36,1.28-1.36.67,0,1.69,0,3,.11s2.38.1,3.08.1,1.46-.06,2.66-.17,2.08-.18,2.66-.18,1,.28,1,.84q0,4.09-.3,12.25t-.29,12.25q0,3.8.31,11.37T53.1,50.61Z"/><path d="M93.46,26.9c0,4.5-.14,7.23-.42,8.21q-.53,1.74-7.61,12.58-1.11,1.7-5.74,7.89-5.1,6.81-5.8,7.19c-.56.35-4.11.53-10.67.53a4,4,0,0,1-2-.35c-.3-1-.68-2.08-1.14-3.37-.38-.82-.75-1.64-1.12-2.47a8.13,8.13,0,0,1-.8-2.4c0-.44.2-.66.59-.66q9.68,0,9.67-4.41c0-.26-1.58-2.56-4.73-6.92s-5.06-7.3-5.39-8.48A48,48,0,0,1,58,27c0-.83,0-2.09.07-3.77s.07-2.94.07-3.77c0-.6.39-.9,1.15-.9,1.18,0,3,0,5.37.1s4.19.11,5.37.11c.49,0,.73.35.73,1.07s0,1.63-.1,2.94-.11,2.29-.11,2.94q0,4.38.14,5.94a14,14,0,0,0,2.09,4.52c1.39,2.29,2.39,3.44,3,3.44s1.44-1.13,2.71-3.41a16.23,16.23,0,0,0,1.91-4.34,59.36,59.36,0,0,0,.35-6.64c0-.63-.06-1.57-.17-2.85s-.18-2.24-.18-2.88c0-.44.25-.67.73-.67,1.18,0,2.95,0,5.3-.13s4.12-.14,5.3-.14a1.2,1.2,0,0,1,1.22.9A33,33,0,0,1,93.46,26.9Z"/><path d="M159.6,20.72q0,.11-6.46,14-6.57,14.19-7.51,16a5.08,5.08,0,0,1-.38.69,1.42,1.42,0,0,1-.66.32,32.36,32.36,0,0,1-4.94.2,28.43,28.43,0,0,1-4.62-.2,3.41,3.41,0,0,1-.84-.28,2.79,2.79,0,0,1-.45-.66q-.21-.39-2-4.9L128,36.18,124.11,46q-.58,1.66-1.94,4.8a3.74,3.74,0,0,1-.49.71,2,2,0,0,1-.8.23,32,32,0,0,1-4.55.2,32.72,32.72,0,0,1-5-.2,1.57,1.57,0,0,1-1-1q-13.62-28-13.62-30c0-1.86.06-4.63.19-8.33s.19-6.47.19-8.32c0-.77.23-1.15.69-1.15q2,0,6,.17t6,.18c.53,0,.8.22.8.66q0,2.78-.26,8.39c-.18,3.75-.26,6.54-.26,8.4,0,.69.84,2.91,2.53,6.64,1.53,3.33,2.65,5.59,3.34,6.77.35.61.58.91.7.91s.66-1.11,1.42-3.34q3.27-9.35,3.34-11c.09-2.13.1-4.85,0-8.14q-.1-7.12-.1-8.16a1.7,1.7,0,0,1,.1-.79,1.74,1.74,0,0,1,.77-.22,60,60,0,0,1,6.11-.21q6.65,0,6.64.94c0,1.55-.05,4-.17,7.23s-.16,5.58-.14,7.23V20.3q0,1.77,3.58,11.3c.81,2.2,1.3,3.3,1.46,3.3s.35-.3.7-.91c.64-1.13,1.69-3.38,3.12-6.74q2.4-5.49,2.4-6.53,0-2.82-.26-8.43t-.26-8.4c0-.41.27-.62.8-.62,1.37,0,3.42-.06,6.17-.18s4.8-.17,6.17-.17c.44,0,.66.47.66,1.39q0,2.75.19,8.22T159.6,20.72Z"/><path d="M196.31,32.81c0,2.34-.76,3.68-2.26,4q-.39.07-7.2.76-4.09.47-12.23,1.08a4.9,4.9,0,0,0,2.95,3.44,10.42,10.42,0,0,0,4.59,1,13.14,13.14,0,0,0,6.22-1.67L191,39.73c.49.23,1.31,1.41,2.45,3.55s1.72,3.48,1.72,4.06c0,.16-.17.43-.52.8-2.82,3-7.22,4.55-13.17,4.55q-8.28,0-13.35-4.83t-5.21-13.1q0-8,4.66-13.1,4.78-5.3,12.72-5.29a15.08,15.08,0,0,1,11.33,4.87A16.18,16.18,0,0,1,196.31,32.81Zm-12.17-2.12a5.39,5.39,0,0,0-1.53-3.79A4.85,4.85,0,0,0,179,25.27a4.37,4.37,0,0,0-3.61,1.84,6.35,6.35,0,0,0-1.32,4c0,.63.32.94,1,.94a61.55,61.55,0,0,0,8-.8C183.76,31.13,184.14,31,184.14,30.69Z"/><path d="M237.81,34.69a18.17,18.17,0,0,1-4.17,12.2A14.53,14.53,0,0,1,222,52.1a11.78,11.78,0,0,1-8.41-3,.78.78,0,0,0-.42-.2c-.23,0-.45.42-.64,1.28s-.44,1.33-.72,1.43-3.69.17-9.9.17c-1.46,0-2.19-.27-2.19-.8a3.86,3.86,0,0,1,.07-.52q.69-5.52.69-21.06,0-14.85-1-25.83l0-.38q0-.56,1.08-.63.77,0,6.05-.52c2.48-.23,4.49-.35,6.05-.35.44,0,.66.39.66,1.15s-.06,2.1-.18,3.58c-.14,1.83-.22,3-.24,3.62-.12,2.29-.17,5.42-.17,9.38,0,.72.18,1.08.55,1.08a.67.67,0,0,0,.52-.28A10.75,10.75,0,0,1,222,16.89q7.6,0,11.88,5.18Q237.82,26.87,237.81,34.69Zm-12.59-.38a7.12,7.12,0,0,0-1.77-4.89,5.88,5.88,0,0,0-4.62-2,5.72,5.72,0,0,0-4.61,2,7.47,7.47,0,0,0-1.68,5,7.22,7.22,0,0,0,1.63,4.93,6,6,0,0,0,4.73,2,5.82,5.82,0,0,0,4.69-2A7.31,7.31,0,0,0,225.22,34.31Z"/><path d="M262.38,23.57a1.68,1.68,0,0,1-.52.94,7.67,7.67,0,0,0-1.95-.25,6.15,6.15,0,0,0-3.44.91,3.29,3.29,0,0,0-1.67,2.95c0,.81.59,1.84,1.78,3.09a35.82,35.82,0,0,1,3.3,3.79,10,10,0,0,1,1.77,5.67,11.41,11.41,0,0,1-.69,3.75,7.39,7.39,0,0,1-2,3.2,24.29,24.29,0,0,1-6,3.75,17.45,17.45,0,0,1-6.85,1.6c-.46,0-1.5-1.25-3.11-3.77s-2.42-4.05-2.42-4.6q0-.32.39-.39l4.9-.9q3-1,3-3.2a5.77,5.77,0,0,0-1.77-3.54q-3.17-3.51-3.3-3.72a9,9,0,0,1-1.77-5.29q0-5.2,5.28-8.86a17.61,17.61,0,0,1,10.11-3.23c.38,0,1.29,1.24,2.75,3.74S262.38,23.15,262.38,23.57Z"/><path d="M302.07,26.49l-.07,24c0,.81-.32,1.26-1,1.36S298.6,52,296,52a34.86,34.86,0,0,1-5.32-.27,1.33,1.33,0,0,1-1.15-1.5q0-3,.11-9t.1-9q0-4.06-4.14-4.07a6.67,6.67,0,0,0-3.26,1.11c-1.37.81-2.05,1.66-2.05,2.54v8.59c0,1.11,0,2.78.07,5s.06,3.91.06,5c0,.86-.35,1.33-1.07,1.43s-2.74.13-6.05.13a21.73,21.73,0,0,1-4.1-.27c-.84-.19-1.25-.59-1.25-1.22q0-2.74,0-8.26c0-3.67,0-6.42,0-8.25q0-11.37-.25-18.8c-.07-1.74-.12-3.48-.17-5.22a36.5,36.5,0,0,0-.63-5.18,3.17,3.17,0,0,1-.1-.66.67.67,0,0,1,.52-.69A13.31,13.31,0,0,1,270.51,3c1.86-.07,2.93-.13,3.24-.18L280,2.12c.37,0,.55.24.55.73,0,.74,0,1.75-.14,3-.09,1.48-.13,2.49-.13,3q-.21,7.86-.21,12.41c0,.46.11.69.34.69a21,21,0,0,0,1.78-1.21,23,23,0,0,1,3.86-2.26,13.1,13.1,0,0,1,5.31-1.22,11.74,11.74,0,0,1,7.44,2.33A8.18,8.18,0,0,1,302.07,26.49Z"/><path d="M341.18,34.59q0,7.92-4.85,12.86t-12.74,4.93A17.17,17.17,0,0,1,311,47.52,16.84,16.84,0,0,1,306.07,35c0-5.37,1.58-9.74,4.73-13.08s7.41-5,12.79-5,9.48,1.64,12.72,4.92S341.18,29.35,341.18,34.59Zm-11.4,0a7.47,7.47,0,0,0-1.71-4.85,5.41,5.41,0,0,0-4.41-2.11,5.59,5.59,0,0,0-4.52,2.16,7.29,7.29,0,0,0-1.67,4.8,7.37,7.37,0,0,0,1.67,4.83,5.78,5.78,0,0,0,9,0A7.45,7.45,0,0,0,329.78,34.59Z"/><path d="M383.72,35a17.83,17.83,0,0,1-4.38,12.34,15.11,15.11,0,0,1-11.85,5.07,14.53,14.53,0,0,1-5.74-1.32A13.36,13.36,0,0,1,359,49.74c-.3,0-.45.35-.45,1,0,1.18.06,3,.17,5.34s.18,4.15.18,5.33a1,1,0,0,1-1.15,1.12l-7.09,0a17.15,17.15,0,0,1-3.09-.17,1.22,1.22,0,0,1-1.05-1.29l.07-26.76a65.18,65.18,0,0,0-1.21-13.66,2.82,2.82,0,0,1-.07-.59.69.69,0,0,1,.41-.7,29.18,29.18,0,0,1,5.18-1.11,39.57,39.57,0,0,1,5.39-.59c.91,0,1.42.59,1.55,1.79s.28,1.79.47,1.79c-.23,0,.76-.63,3-1.9a12.4,12.4,0,0,1,6-1.89q7.55,0,12.06,5Q383.72,27.29,383.72,35Zm-12.9-.07a7.43,7.43,0,0,0-1.7-4.87,5.72,5.72,0,0,0-4.55-2.19A5.3,5.3,0,0,0,360.12,30a8,8,0,0,0-1.46,4.87,7.69,7.69,0,0,0,1.53,4.9,5.39,5.39,0,0,0,4.52,2.12Q370.83,41.92,370.82,34.9Z"/></svg>